<?xml version="1.0" encoding="UTF-8"?>
<svg xmlns="http://www.w3.org/2000/svg" xmlns:xlink="http://www.w3.org/1999/xlink" width="288px" height="252px" viewBox="0 0 288 252" version="1.1" id="Fig:dens">
  <metadata xmlns:gridsvg="http://www.stat.auckland.ac.nz/~paul/R/gridSVG/">
    <gridsvg:generator name="gridSVG" version="1.7-5" time="2023-11-03 18:45:42"/>
    <gridsvg:argument name="name" value="Quality_Metrics/dens.svg"/>
    <gridsvg:argument name="exportCoords" value="none"/>
    <gridsvg:argument name="exportMappings" value="none"/>
    <gridsvg:argument name="exportJS" value="none"/>
    <gridsvg:argument name="res" value="72"/>
    <gridsvg:argument name="prefix" value="Fig:dens"/>
    <gridsvg:argument name="addClasses" value="FALSE"/>
    <gridsvg:argument name="indent" value="TRUE"/>
    <gridsvg:argument name="htmlWrapper" value="FALSE"/>
    <gridsvg:argument name="usePaths" value="none"/>
    <gridsvg:argument name="uniqueNames" value="TRUE"/>
    <gridsvg:separator name="id.sep" value="."/>
    <gridsvg:separator name="gPath.sep" value="::"/>
    <gridsvg:separator name="vpPath.sep" value="::"/>
  </metadata>
  <g transform="translate(0, 252) scale(1, -1)">
    <g id="Fig:densgridSVG" fill="none" stroke="rgb(0,0,0)" stroke-dasharray="none" stroke-width="0.75" font-size="12" font-family="Helvetica, Arial, FreeSans, Liberation Sans, Nimbus Sans L, sans-serif" opacity="1" stroke-linecap="round" stroke-linejoin="round" stroke-miterlimit="10" stroke-opacity="1" fill-opacity="0" font-weight="normal" font-style="normal">
      <g id="Fig:densplot_01.background.1">
        <rect id="Fig:densplot_01.background.1.1" x="0" y="0" width="288" height="252" transform="" fill="none" stroke="none" stroke-opacity="0" fill-opacity="0"/>
      </g>
      <g id="Fig:densplot_01.toplevel.vp.1" font-size="12">
        <g id="Fig:densplot_01.ylab.vp.1">
          <g id="Fig:densplot_01.ylab.1">
            <g id="Fig:densplot_01.ylab.1.1" transform="translate(16.31, 141.09)" stroke-width="0.1">
              <g id="Fig:densplot_01.ylab.1.1.scale" transform="scale(1, -1)">
                <text x="0" y="0" id="Fig:densplot_01.ylab.1.1.text" transform="rotate(-90)" text-anchor="middle" opacity="1" stroke="rgb(0,0,0)" fill="rgb(0,0,0)" stroke-opacity="1" fill-opacity="1" font-size="12" font-weight="normal" font-style="normal">
                  <tspan id="Fig:densplot_01.ylab.1.1.tspan.1" dy="4.31" x="0">Density</tspan>
                </text>
              </g>
            </g>
          </g>
        </g>
        <g id="Fig:densplot_01.figure.vp.1"/>
        <defs>
          <clipPath id="Fig:densplot_01.panel.1.1.vp.1.clipPath">
            <rect x="50.8" y="48.19" width="225.2" height="185.81" fill="none" stroke="none"/>
          </clipPath>
        </defs>
        <g id="Fig:densplot_01.panel.1.1.vp.1" clip-path="url(#Fig:densplot_01.panel.1.1.vp.1.clipPath)"/>
        <g id="Fig:densplot_01.strip.1.1.off.vp.1"/>
        <g id="Fig:densplot_01.strip.left.1.1.off.vp.1">
          <g id="Fig:densplot_01.ticks.left.panel.1.1.1">
            <polyline id="Fig:densplot_01.ticks.left.panel.1.1.1.1" points="50.8,59.6 45.13,59.6" stroke="rgb(0,0,0)" opacity="1" stroke-dasharray="none" stroke-width="0.75" stroke-opacity="1" fill="none"/>
            <polyline id="Fig:densplot_01.ticks.left.panel.1.1.1.2" points="50.8,90 45.13,90" stroke="rgb(0,0,0)" opacity="1" stroke-dasharray="none" stroke-width="0.75" stroke-opacity="1" fill="none"/>
            <polyline id="Fig:densplot_01.ticks.left.panel.1.1.1.3" points="50.8,120.39 45.13,120.39" stroke="rgb(0,0,0)" opacity="1" stroke-dasharray="none" stroke-width="0.75" stroke-opacity="1" fill="none"/>
            <polyline id="Fig:densplot_01.ticks.left.panel.1.1.1.4" points="50.8,150.79 45.13,150.79" stroke="rgb(0,0,0)" opacity="1" stroke-dasharray="none" stroke-width="0.75" stroke-opacity="1" fill="none"/>
            <polyline id="Fig:densplot_01.ticks.left.panel.1.1.1.5" points="50.8,181.19 45.13,181.19" stroke="rgb(0,0,0)" opacity="1" stroke-dasharray="none" stroke-width="0.75" stroke-opacity="1" fill="none"/>
            <polyline id="Fig:densplot_01.ticks.left.panel.1.1.1.6" points="50.8,211.59 45.13,211.59" stroke="rgb(0,0,0)" opacity="1" stroke-dasharray="none" stroke-width="0.75" stroke-opacity="1" fill="none"/>
          </g>
          <g id="Fig:densplot_01.ticklabels.left.panel.1.1.1">
            <g id="Fig:densplot_01.ticklabels.left.panel.1.1.1.1" transform="translate(39.47, 59.6)" stroke-width="0.1">
              <g id="Fig:densplot_01.ticklabels.left.panel.1.1.1.1.scale" transform="scale(1, -1)">
                <text x="0" y="0" id="Fig:densplot_01.ticklabels.left.panel.1.1.1.1.text" transform="rotate(-90)" text-anchor="middle" stroke="rgb(0,0,0)" opacity="1" fill="rgb(0,0,0)" stroke-opacity="1" fill-opacity="1" font-size="9.6" font-weight="normal" font-style="normal">
                  <tspan id="Fig:densplot_01.ticklabels.left.panel.1.1.1.1.tspan.1" dy="0" x="0">0.0</tspan>
                </text>
              </g>
            </g>
            <g id="Fig:densplot_01.ticklabels.left.panel.1.1.1.2" transform="translate(39.47, 90)" stroke-width="0.1">
              <g id="Fig:densplot_01.ticklabels.left.panel.1.1.1.2.scale" transform="scale(1, -1)">
                <text x="0" y="0" id="Fig:densplot_01.ticklabels.left.panel.1.1.1.2.text" transform="rotate(-90)" text-anchor="middle" stroke="rgb(0,0,0)" opacity="1" fill="rgb(0,0,0)" stroke-opacity="1" fill-opacity="1" font-size="9.6" font-weight="normal" font-style="normal">
                  <tspan id="Fig:densplot_01.ticklabels.left.panel.1.1.1.2.tspan.1" dy="0" x="0">0.2</tspan>
                </text>
              </g>
            </g>
            <g id="Fig:densplot_01.ticklabels.left.panel.1.1.1.3" transform="translate(39.47, 120.39)" stroke-width="0.1">
              <g id="Fig:densplot_01.ticklabels.left.panel.1.1.1.3.scale" transform="scale(1, -1)">
                <text x="0" y="0" id="Fig:densplot_01.ticklabels.left.panel.1.1.1.3.text" transform="rotate(-90)" text-anchor="middle" stroke="rgb(0,0,0)" opacity="1" fill="rgb(0,0,0)" stroke-opacity="1" fill-opacity="1" font-size="9.6" font-weight="normal" font-style="normal">
                  <tspan id="Fig:densplot_01.ticklabels.left.panel.1.1.1.3.tspan.1" dy="0" x="0">0.4</tspan>
                </text>
              </g>
            </g>
            <g id="Fig:densplot_01.ticklabels.left.panel.1.1.1.4" transform="translate(39.47, 150.79)" stroke-width="0.1">
              <g id="Fig:densplot_01.ticklabels.left.panel.1.1.1.4.scale" transform="scale(1, -1)">
                <text x="0" y="0" id="Fig:densplot_01.ticklabels.left.panel.1.1.1.4.text" transform="rotate(-90)" text-anchor="middle" stroke="rgb(0,0,0)" opacity="1" fill="rgb(0,0,0)" stroke-opacity="1" fill-opacity="1" font-size="9.6" font-weight="normal" font-style="normal">
                  <tspan id="Fig:densplot_01.ticklabels.left.panel.1.1.1.4.tspan.1" dy="0" x="0">0.6</tspan>
                </text>
              </g>
            </g>
            <g id="Fig:densplot_01.ticklabels.left.panel.1.1.1.5" transform="translate(39.47, 181.19)" stroke-width="0.1">
              <g id="Fig:densplot_01.ticklabels.left.panel.1.1.1.5.scale" transform="scale(1, -1)">
                <text x="0" y="0" id="Fig:densplot_01.ticklabels.left.panel.1.1.1.5.text" transform="rotate(-90)" text-anchor="middle" stroke="rgb(0,0,0)" opacity="1" fill="rgb(0,0,0)" stroke-opacity="1" fill-opacity="1" font-size="9.6" font-weight="normal" font-style="normal">
                  <tspan id="Fig:densplot_01.ticklabels.left.panel.1.1.1.5.tspan.1" dy="0" x="0">0.8</tspan>
                </text>
              </g>
            </g>
            <g id="Fig:densplot_01.ticklabels.left.panel.1.1.1.6" transform="translate(39.47, 211.59)" stroke-width="0.1">
              <g id="Fig:densplot_01.ticklabels.left.panel.1.1.1.6.scale" transform="scale(1, -1)">
                <text x="0" y="0" id="Fig:densplot_01.ticklabels.left.panel.1.1.1.6.text" transform="rotate(-90)" text-anchor="middle" stroke="rgb(0,0,0)" opacity="1" fill="rgb(0,0,0)" stroke-opacity="1" fill-opacity="1" font-size="9.6" font-weight="normal" font-style="normal">
                  <tspan id="Fig:densplot_01.ticklabels.left.panel.1.1.1.6.tspan.1" dy="0" x="0">1.0</tspan>
                </text>
              </g>
            </g>
          </g>
        </g>
        <g id="Fig:densplot_01.panel.1.1.off.vp.1">
          <g id="Fig:densplot_01.ticks.bottom.panel.1.1.1">
            <polyline id="Fig:densplot_01.ticks.bottom.panel.1.1.1.1" points="76.6,48.19 76.6,42.52" stroke="rgb(0,0,0)" opacity="1" stroke-dasharray="none" stroke-width="0.75" stroke-opacity="1" fill="none"/>
            <polyline id="Fig:densplot_01.ticks.bottom.panel.1.1.1.2" points="110.87,48.19 110.87,42.52" stroke="rgb(0,0,0)" opacity="1" stroke-dasharray="none" stroke-width="0.75" stroke-opacity="1" fill="none"/>
            <polyline id="Fig:densplot_01.ticks.bottom.panel.1.1.1.3" points="145.13,48.19 145.13,42.52" stroke="rgb(0,0,0)" opacity="1" stroke-dasharray="none" stroke-width="0.75" stroke-opacity="1" fill="none"/>
            <polyline id="Fig:densplot_01.ticks.bottom.panel.1.1.1.4" points="179.4,48.19 179.4,42.52" stroke="rgb(0,0,0)" opacity="1" stroke-dasharray="none" stroke-width="0.75" stroke-opacity="1" fill="none"/>
            <polyline id="Fig:densplot_01.ticks.bottom.panel.1.1.1.5" points="213.67,48.19 213.67,42.52" stroke="rgb(0,0,0)" opacity="1" stroke-dasharray="none" stroke-width="0.75" stroke-opacity="1" fill="none"/>
            <polyline id="Fig:densplot_01.ticks.bottom.panel.1.1.1.6" points="247.93,48.19 247.93,42.52" stroke="rgb(0,0,0)" opacity="1" stroke-dasharray="none" stroke-width="0.75" stroke-opacity="1" fill="none"/>
          </g>
          <g id="Fig:densplot_01.ticklabels.bottom.panel.1.1.1">
            <g id="Fig:densplot_01.ticklabels.bottom.panel.1.1.1.1" transform="translate(76.6, 36.85)" stroke-width="0.1">
              <g id="Fig:densplot_01.ticklabels.bottom.panel.1.1.1.1.scale" transform="scale(1, -1)">
                <text x="0" y="0" id="Fig:densplot_01.ticklabels.bottom.panel.1.1.1.1.text" text-anchor="middle" stroke="rgb(0,0,0)" opacity="1" fill="rgb(0,0,0)" stroke-opacity="1" fill-opacity="1" font-size="9.6" font-weight="normal" font-style="normal">
                  <tspan id="Fig:densplot_01.ticklabels.bottom.panel.1.1.1.1.tspan.1" dy="7.18" x="0">6</tspan>
                </text>
              </g>
            </g>
            <g id="Fig:densplot_01.ticklabels.bottom.panel.1.1.1.2" transform="translate(110.87, 36.85)" stroke-width="0.1">
              <g id="Fig:densplot_01.ticklabels.bottom.panel.1.1.1.2.scale" transform="scale(1, -1)">
                <text x="0" y="0" id="Fig:densplot_01.ticklabels.bottom.panel.1.1.1.2.text" text-anchor="middle" stroke="rgb(0,0,0)" opacity="1" fill="rgb(0,0,0)" stroke-opacity="1" fill-opacity="1" font-size="9.6" font-weight="normal" font-style="normal">
                  <tspan id="Fig:densplot_01.ticklabels.bottom.panel.1.1.1.2.tspan.1" dy="7.18" x="0">7</tspan>
                </text>
              </g>
            </g>
            <g id="Fig:densplot_01.ticklabels.bottom.panel.1.1.1.3" transform="translate(145.13, 36.85)" stroke-width="0.1">
              <g id="Fig:densplot_01.ticklabels.bottom.panel.1.1.1.3.scale" transform="scale(1, -1)">
                <text x="0" y="0" id="Fig:densplot_01.ticklabels.bottom.panel.1.1.1.3.text" text-anchor="middle" stroke="rgb(0,0,0)" opacity="1" fill="rgb(0,0,0)" stroke-opacity="1" fill-opacity="1" font-size="9.6" font-weight="normal" font-style="normal">
                  <tspan id="Fig:densplot_01.ticklabels.bottom.panel.1.1.1.3.tspan.1" dy="7.18" x="0">8</tspan>
                </text>
              </g>
            </g>
            <g id="Fig:densplot_01.ticklabels.bottom.panel.1.1.1.4" transform="translate(179.4, 36.85)" stroke-width="0.1">
              <g id="Fig:densplot_01.ticklabels.bottom.panel.1.1.1.4.scale" transform="scale(1, -1)">
                <text x="0" y="0" id="Fig:densplot_01.ticklabels.bottom.panel.1.1.1.4.text" text-anchor="middle" stroke="rgb(0,0,0)" opacity="1" fill="rgb(0,0,0)" stroke-opacity="1" fill-opacity="1" font-size="9.6" font-weight="normal" font-style="normal">
                  <tspan id="Fig:densplot_01.ticklabels.bottom.panel.1.1.1.4.tspan.1" dy="7.18" x="0">9</tspan>
                </text>
              </g>
            </g>
            <g id="Fig:densplot_01.ticklabels.bottom.panel.1.1.1.5" transform="translate(213.67, 36.85)" stroke-width="0.1">
              <g id="Fig:densplot_01.ticklabels.bottom.panel.1.1.1.5.scale" transform="scale(1, -1)">
                <text x="0" y="0" id="Fig:densplot_01.ticklabels.bottom.panel.1.1.1.5.text" text-anchor="middle" stroke="rgb(0,0,0)" opacity="1" fill="rgb(0,0,0)" stroke-opacity="1" fill-opacity="1" font-size="9.6" font-weight="normal" font-style="normal">
                  <tspan id="Fig:densplot_01.ticklabels.bottom.panel.1.1.1.5.tspan.1" dy="7.18" x="0">10</tspan>
                </text>
              </g>
            </g>
            <g id="Fig:densplot_01.ticklabels.bottom.panel.1.1.1.6" transform="translate(247.93, 36.85)" stroke-width="0.1">
              <g id="Fig:densplot_01.ticklabels.bottom.panel.1.1.1.6.scale" transform="scale(1, -1)">
                <text x="0" y="0" id="Fig:densplot_01.ticklabels.bottom.panel.1.1.1.6.text" text-anchor="middle" stroke="rgb(0,0,0)" opacity="1" fill="rgb(0,0,0)" stroke-opacity="1" fill-opacity="1" font-size="9.6" font-weight="normal" font-style="normal">
                  <tspan id="Fig:densplot_01.ticklabels.bottom.panel.1.1.1.6.tspan.1" dy="7.18" x="0">11</tspan>
                </text>
              </g>
            </g>
          </g>
        </g>
        <defs>
          <clipPath id="Fig:densplot_01.panel.1.1.vp.2.clipPath">
            <rect x="50.8" y="48.19" width="225.2" height="185.81" fill="none" stroke="none"/>
          </clipPath>
        </defs>
        <g id="Fig:densplot_01.panel.1.1.vp.2" clip-path="url(#Fig:densplot_01.panel.1.1.vp.2.clipPath)">
          <g id="Fig:densplot_01.xyplot.lines.group.1.panel.1.1.1">
            <polyline id="Fig:densplot_01.xyplot.lines.group.1.panel.1.1.1.1" points="73.22,59.6 73.59,59.6 73.95,59.6 74.32,59.6 74.68,59.6 75.05,59.6 75.42,59.6 75.78,59.6 76.15,59.61 76.51,59.61 76.88,59.62 77.24,59.63 77.61,59.64 77.98,59.65 78.34,59.67 78.71,59.7 79.07,59.73 79.44,59.78 79.81,59.83 80.17,59.91 80.54,60 80.9,60.12 81.27,60.26 81.63,60.44 82,60.67 82.37,60.94 82.73,61.28 83.1,61.7 83.46,62.2 83.83,62.8 84.19,63.53 84.56,64.39 84.93,65.41 85.29,66.6 85.66,67.99 86.02,69.58 86.39,71.41 86.76,73.48 87.12,75.81 87.49,78.42 87.85,81.31 88.22,84.49 88.58,88 88.95,91.82 89.32,95.93 89.68,100.34 90.05,105 90.41,109.91 90.78,115.03 91.14,120.33 91.51,125.76 91.88,131.29 92.24,136.87 92.61,142.47 92.97,148.04 93.34,153.54 93.71,158.93 94.07,164.16 94.44,169.19 94.8,174 95.17,178.56 95.53,182.84 95.9,186.83 96.27,190.51 96.63,193.86 97,196.87 97.36,199.51 97.73,201.77 98.09,203.64 98.46,205.11 98.83,206.2 99.19,206.9 99.56,207.23 99.92,207.21 100.29,206.88 100.65,206.26 101.02,205.39 101.39,204.29 101.75,203 102.12,201.55 102.48,199.97 102.85,198.28 103.22,196.5 103.58,194.63 103.95,192.69 104.31,190.67 104.68,188.57 105.04,186.42 105.41,184.21 105.78,181.98 106.14,179.74 106.51,177.52 106.87,175.33 107.24,173.18 107.6,171.09 107.97,169.06 108.34,167.07 108.7,165.13 109.07,163.22 109.43,161.34 109.8,159.48 110.17,157.64 110.53,155.83 110.9,154.05 111.26,152.3 111.63,150.59 111.99,148.92 112.36,147.3 112.73,145.73 113.09,144.19 113.46,142.68 113.82,141.21 114.19,139.77 114.55,138.36 114.92,136.97 115.29,135.6 115.65,134.26 116.02,132.95 116.38,131.66 116.75,130.42 117.11,129.22 117.48,128.05 117.85,126.92 118.21,125.81 118.58,124.72 118.94,123.65 119.31,122.59 119.68,121.54 120.04,120.52 120.41,119.53 120.77,118.58 121.14,117.67 121.5,116.8 121.87,115.97 122.24,115.17 122.6,114.39 122.97,113.62 123.33,112.85 123.7,112.07 124.06,111.29 124.43,110.5 124.8,109.72 125.16,108.93 125.53,108.16 125.89,107.4 126.26,106.65 126.63,105.93 126.99,105.24 127.36,104.56 127.72,103.9 128.09,103.27 128.45,102.66 128.82,102.08 129.19,101.52 129.55,100.98 129.92,100.45 130.28,99.94 130.65,99.42 131.01,98.9 131.38,98.37 131.75,97.83 132.11,97.28 132.48,96.73 132.84,96.2 133.21,95.67 133.58,95.17 133.94,94.7 134.31,94.25 134.67,93.82 135.04,93.41 135.4,93.01 135.77,92.63 136.14,92.26 136.5,91.89 136.87,91.54 137.23,91.2 137.6,90.86 137.96,90.53 138.33,90.2 138.7,89.87 139.06,89.54 139.43,89.21 139.79,88.88 140.16,88.55 140.52,88.22 140.89,87.89 141.26,87.57 141.62,87.26 141.99,86.94 142.35,86.63 142.72,86.33 143.09,86.03 143.45,85.73 143.82,85.43 144.18,85.14 144.55,84.86 144.91,84.6 145.28,84.34 145.65,84.09 146.01,83.86 146.38,83.64 146.74,83.44 147.11,83.24 147.47,83.04 147.84,82.85 148.21,82.67 148.57,82.48 148.94,82.29 149.3,82.1 149.67,81.91 150.04,81.71 150.4,81.52 150.77,81.32 151.13,81.12 151.5,80.93 151.86,80.74 152.23,80.56 152.6,80.38 152.96,80.21 153.33,80.04 153.69,79.88 154.06,79.71 154.42,79.54 154.79,79.36 155.16,79.19 155.52,79.01 155.89,78.84 156.25,78.66 156.62,78.5 156.98,78.34 157.35,78.18 157.72,78.03 158.08,77.88 158.45,77.73 158.81,77.58 159.18,77.44 159.55,77.29 159.91,77.15 160.28,77.01 160.64,76.87 161.01,76.73 161.37,76.6 161.74,76.46 162.11,76.33 162.47,76.2 162.84,76.07 163.2,75.95 163.57,75.82 163.93,75.7 164.3,75.58 164.67,75.46 165.03,75.35 165.4,75.23 165.76,75.11 166.13,74.99 166.5,74.87 166.86,74.75 167.23,74.62 167.59,74.49 167.96,74.35 168.32,74.21 168.69,74.05 169.06,73.89 169.42,73.73 169.79,73.56 170.15,73.39 170.52,73.22 170.88,73.06 171.25,72.92 171.62,72.79 171.98,72.66 172.35,72.55 172.71,72.45 173.08,72.35 173.44,72.24 173.81,72.12 174.18,72 174.54,71.88 174.91,71.75 175.27,71.62 175.64,71.49 176.01,71.38 176.37,71.27 176.74,71.18 177.1,71.11 177.47,71.06 177.83,71.01 178.2,70.98 178.57,70.95 178.93,70.91 179.3,70.87 179.66,70.81 180.03,70.75 180.39,70.66 180.76,70.56 181.13,70.45 181.49,70.33 181.86,70.2 182.22,70.07 182.59,69.94 182.96,69.81 183.32,69.7 183.69,69.6 184.05,69.51 184.42,69.43 184.78,69.35 185.15,69.29 185.52,69.24 185.88,69.19 186.25,69.14 186.61,69.09 186.98,69.03 187.34,68.98 187.71,68.91 188.08,68.84 188.44,68.75 188.81,68.66 189.17,68.56 189.54,68.46 189.91,68.36 190.27,68.26 190.64,68.16 191,68.06 191.37,67.98 191.73,67.91 192.1,67.84 192.47,67.79 192.83,67.74 193.2,67.7 193.56,67.67 193.93,67.64 194.29,67.6 194.66,67.56 195.03,67.51 195.39,67.45 195.76,67.39 196.12,67.32 196.49,67.24 196.85,67.16 197.22,67.08 197.59,67 197.95,66.93 198.32,66.87 198.68,66.8 199.05,66.74 199.42,66.69 199.78,66.64 200.15,66.59 200.51,66.54 200.88,66.49 201.24,66.45 201.61,66.41 201.98,66.36 202.34,66.32 202.71,66.28 203.07,66.24 203.44,66.19 203.8,66.14 204.17,66.08 204.54,66.01 204.9,65.92 205.27,65.83 205.63,65.74 206,65.64 206.37,65.54 206.73,65.44 207.1,65.36 207.46,65.29 207.83,65.23 208.19,65.19 208.56,65.15 208.93,65.12 209.29,65.09 209.66,65.06 210.02,65.02 210.39,64.98 210.75,64.93 211.12,64.88 211.49,64.82 211.85,64.77 212.22,64.72 212.58,64.67 212.95,64.64 213.31,64.61 213.68,64.58 214.05,64.56 214.41,64.53 214.78,64.5 215.14,64.47 215.51,64.42 215.88,64.37 216.24,64.32 216.61,64.26 216.97,64.21 217.34,64.16 217.7,64.11 218.07,64.07 218.44,64.04 218.8,64.02 219.17,64.01 219.53,63.99 219.9,63.98 220.26,63.97 220.63,63.95 221,63.93 221.36,63.9 221.73,63.87 222.09,63.83 222.46,63.78 222.83,63.73 223.19,63.68 223.56,63.63 223.92,63.59 224.29,63.54 224.65,63.5 225.02,63.46 225.39,63.43 225.75,63.39 226.12,63.35 226.48,63.31 226.85,63.27 227.21,63.22 227.58,63.18 227.95,63.14 228.31,63.1 228.68,63.06 229.04,63.03 229.41,63 229.78,62.96 230.14,62.93 230.51,62.9 230.87,62.87 231.24,62.85 231.6,62.83 231.97,62.82 232.34,62.81 232.7,62.8 233.07,62.8 233.43,62.79 233.8,62.78 234.16,62.76 234.53,62.74 234.9,62.71 235.26,62.68 235.63,62.64 235.99,62.6 236.36,62.57 236.72,62.53 237.09,62.5 237.46,62.47 237.82,62.44 238.19,62.41 238.55,62.38 238.92,62.36 239.29,62.33 239.65,62.29 240.02,62.26 240.38,62.23 240.75,62.2 241.11,62.17 241.48,62.14 241.85,62.12 242.21,62.1 242.58,62.08 242.94,62.08 243.31,62.07 243.67,62.07 244.04,62.07 244.41,62.08 244.77,62.08 245.14,62.08 245.5,62.08 245.87,62.06 246.24,62.05 246.6,62.03 246.97,62 247.33,61.96 247.7,61.93 248.06,61.89 248.43,61.85 248.8,61.82 249.16,61.78 249.53,61.75 249.89,61.72 250.26,61.69 250.62,61.67 250.99,61.64 251.36,61.61 251.72,61.57 252.09,61.53 252.45,61.47 252.82,61.41 253.18,61.32 253.55,61.21 253.92,61.09 254.28,60.95 254.65,60.79 255.01,60.63 255.38,60.46 255.75,60.3 256.11,60.15 256.48,60.01 256.84,59.9 257.21,59.81 257.57,59.74 257.94,59.69 258.31,59.66 258.67,59.63 259.04,59.62 259.4,59.61 259.77,59.6 260.13,59.6" stroke-dasharray="none" stroke="rgb(31,120,180)" stroke-width="0.75" opacity="1" stroke-opacity="1" fill="none"/>
          </g>
          <g id="Fig:densplot_01.xyplot.lines.group.2.panel.1.1.1">
            <polyline id="Fig:densplot_01.xyplot.lines.group.2.panel.1.1.1.1" points="71.1,59.6 71.47,59.6 71.84,59.6 72.21,59.6 72.58,59.6 72.95,59.6 73.32,59.6 73.69,59.6 74.06,59.61 74.43,59.61 74.8,59.62 75.17,59.63 75.54,59.65 75.91,59.67 76.28,59.7 76.65,59.74 77.02,59.8 77.39,59.88 77.75,59.99 78.12,60.13 78.49,60.32 78.86,60.57 79.23,60.89 79.6,61.29 79.97,61.81 80.34,62.46 80.71,63.26 81.08,64.24 81.45,65.43 81.82,66.86 82.19,68.55 82.56,70.53 82.93,72.85 83.3,75.55 83.67,78.63 84.04,82.11 84.41,86.02 84.78,90.37 85.15,95.14 85.52,100.34 85.89,105.95 86.26,111.93 86.63,118.25 86.99,124.88 87.36,131.76 87.73,138.83 88.1,146.02 88.47,153.26 88.84,160.46 89.21,167.54 89.58,174.42 89.95,181.04 90.32,187.32 90.69,193.2 91.06,198.63 91.43,203.56 91.8,207.96 92.17,211.8 92.54,215.05 92.91,217.7 93.28,219.76 93.65,221.24 94.02,222.17 94.39,222.59 94.76,222.53 95.13,222.06 95.5,221.25 95.86,220.15 96.23,218.79 96.6,217.23 96.97,215.46 97.34,213.52 97.71,211.4 98.08,209.12 98.45,206.7 98.82,204.14 99.19,201.45 99.56,198.68 99.93,195.83 100.3,192.93 100.67,190.03 101.04,187.15 101.41,184.32 101.78,181.56 102.15,178.87 102.52,176.27 102.89,173.74 103.26,171.27 103.63,168.85 104,166.46 104.37,164.1 104.74,161.79 105.1,159.52 105.47,157.32 105.84,155.2 106.21,153.16 106.58,151.2 106.95,149.32 107.32,147.52 107.69,145.77 108.06,144.08 108.43,142.45 108.8,140.87 109.17,139.35 109.54,137.88 109.91,136.45 110.28,135.05 110.65,133.68 111.02,132.33 111.39,130.99 111.76,129.67 112.13,128.36 112.5,127.07 112.87,125.8 113.24,124.56 113.61,123.36 113.98,122.19 114.34,121.07 114.71,119.98 115.08,118.93 115.45,117.91 115.82,116.92 116.19,115.95 116.56,115.01 116.93,114.09 117.3,113.19 117.67,112.3 118.04,111.44 118.41,110.59 118.78,109.76 119.15,108.94 119.52,108.13 119.89,107.32 120.26,106.5 120.63,105.69 121,104.87 121.37,104.06 121.74,103.27 122.11,102.51 122.48,101.79 122.85,101.11 123.21,100.48 123.58,99.9 123.95,99.38 124.32,98.9 124.69,98.47 125.06,98.08 125.43,97.71 125.8,97.36 126.17,97.01 126.54,96.65 126.91,96.29 127.28,95.9 127.65,95.49 128.02,95.06 128.39,94.62 128.76,94.18 129.13,93.74 129.5,93.3 129.87,92.88 130.24,92.48 130.61,92.08 130.98,91.69 131.35,91.3 131.72,90.9 132.09,90.49 132.45,90.08 132.82,89.66 133.19,89.25 133.56,88.84 133.93,88.45 134.3,88.08 134.67,87.74 135.04,87.41 135.41,87.11 135.78,86.82 136.15,86.54 136.52,86.28 136.89,86.02 137.26,85.78 137.63,85.55 138,85.32 138.37,85.11 138.74,84.91 139.11,84.7 139.48,84.5 139.85,84.3 140.22,84.09 140.59,83.87 140.96,83.65 141.32,83.42 141.69,83.18 142.06,82.94 142.43,82.69 142.8,82.44 143.17,82.19 143.54,81.95 143.91,81.71 144.28,81.48 144.65,81.26 145.02,81.05 145.39,80.86 145.76,80.67 146.13,80.5 146.5,80.32 146.87,80.15 147.24,79.97 147.61,79.78 147.98,79.58 148.35,79.37 148.72,79.16 149.09,78.95 149.46,78.73 149.83,78.52 150.2,78.32 150.56,78.13 150.93,77.96 151.3,77.82 151.67,77.69 152.04,77.57 152.41,77.47 152.78,77.37 153.15,77.27 153.52,77.15 153.89,77.03 154.26,76.9 154.63,76.76 155,76.61 155.37,76.47 155.74,76.32 156.11,76.18 156.48,76.03 156.85,75.88 157.22,75.73 157.59,75.57 157.96,75.41 158.33,75.25 158.7,75.1 159.07,74.94 159.44,74.79 159.8,74.64 160.17,74.48 160.54,74.31 160.91,74.14 161.28,73.96 161.65,73.78 162.02,73.61 162.39,73.45 162.76,73.29 163.13,73.14 163.5,73.01 163.87,72.88 164.24,72.76 164.61,72.65 164.98,72.53 165.35,72.42 165.72,72.3 166.09,72.17 166.46,72.05 166.83,71.92 167.2,71.8 167.57,71.69 167.94,71.59 168.31,71.51 168.67,71.44 169.04,71.38 169.41,71.34 169.78,71.3 170.15,71.27 170.52,71.24 170.89,71.21 171.26,71.18 171.63,71.13 172,71.08 172.37,71 172.74,70.92 173.11,70.82 173.48,70.71 173.85,70.59 174.22,70.47 174.59,70.35 174.96,70.23 175.33,70.11 175.7,70.01 176.07,69.9 176.44,69.81 176.81,69.72 177.18,69.63 177.55,69.55 177.91,69.47 178.28,69.38 178.65,69.3 179.02,69.2 179.39,69.11 179.76,69.01 180.13,68.92 180.5,68.83 180.87,68.74 181.24,68.67 181.61,68.61 181.98,68.55 182.35,68.51 182.72,68.47 183.09,68.43 183.46,68.39 183.83,68.33 184.2,68.26 184.57,68.18 184.94,68.09 185.31,68 185.68,67.9 186.05,67.8 186.42,67.7 186.78,67.6 187.15,67.51 187.52,67.41 187.89,67.32 188.26,67.22 188.63,67.13 189,67.04 189.37,66.95 189.74,66.86 190.11,66.77 190.48,66.69 190.85,66.61 191.22,66.55 191.59,66.49 191.96,66.43 192.33,66.39 192.7,66.34 193.07,66.3 193.44,66.25 193.81,66.19 194.18,66.13 194.55,66.07 194.92,66.01 195.29,65.95 195.66,65.89 196.02,65.84 196.39,65.79 196.76,65.74 197.13,65.7 197.5,65.66 197.87,65.62 198.24,65.58 198.61,65.55 198.98,65.52 199.35,65.5 199.72,65.48 200.09,65.46 200.46,65.43 200.83,65.4 201.2,65.37 201.57,65.33 201.94,65.28 202.31,65.24 202.68,65.19 203.05,65.13 203.42,65.08 203.79,65.02 204.16,64.95 204.53,64.88 204.9,64.81 205.26,64.75 205.63,64.68 206,64.62 206.37,64.56 206.74,64.51 207.11,64.46 207.48,64.41 207.85,64.37 208.22,64.32 208.59,64.26 208.96,64.21 209.33,64.14 209.7,64.08 210.07,64.02 210.44,63.96 210.81,63.9 211.18,63.84 211.55,63.79 211.92,63.75 212.29,63.72 212.66,63.69 213.03,63.66 213.4,63.64 213.77,63.63 214.13,63.61 214.5,63.6 214.87,63.59 215.24,63.58 215.61,63.56 215.98,63.55 216.35,63.53 216.72,63.51 217.09,63.48 217.46,63.45 217.83,63.42 218.2,63.38 218.57,63.34 218.94,63.31 219.31,63.27 219.68,63.23 220.05,63.19 220.42,63.15 220.79,63.11 221.16,63.08 221.53,63.05 221.9,63.02 222.27,62.99 222.64,62.96 223.01,62.94 223.37,62.92 223.74,62.9 224.11,62.88 224.48,62.86 224.85,62.83 225.22,62.8 225.59,62.75 225.96,62.71 226.33,62.66 226.7,62.61 227.07,62.56 227.44,62.51 227.81,62.47 228.18,62.43 228.55,62.4 228.92,62.38 229.29,62.36 229.66,62.34 230.03,62.32 230.4,62.31 230.77,62.29 231.14,62.28 231.51,62.27 231.88,62.26 232.24,62.24 232.61,62.23 232.98,62.21 233.35,62.19 233.72,62.16 234.09,62.14 234.46,62.11 234.83,62.09 235.2,62.07 235.57,62.05 235.94,62.03 236.31,62.01 236.68,61.99 237.05,61.97 237.42,61.95 237.79,61.92 238.16,61.89 238.53,61.86 238.9,61.84 239.27,61.81 239.64,61.79 240.01,61.78 240.38,61.77 240.75,61.76 241.12,61.75 241.48,61.75 241.85,61.75 242.22,61.74 242.59,61.74 242.96,61.74 243.33,61.73 243.7,61.72 244.07,61.7 244.44,61.68 244.81,61.66 245.18,61.64 245.55,61.62 245.92,61.6 246.29,61.58 246.66,61.57 247.03,61.56 247.4,61.56 247.77,61.56 248.14,61.57 248.51,61.58 248.88,61.58 249.25,61.6 249.62,61.61 249.99,61.61 250.36,61.62 250.72,61.62 251.09,61.62 251.46,61.61 251.83,61.6 252.2,61.57 252.57,61.52 252.94,61.46 253.31,61.38 253.68,61.27 254.05,61.14 254.42,60.98 254.79,60.81 255.16,60.62 255.53,60.44 255.9,60.27 256.27,60.11 256.64,59.97 257.01,59.86 257.38,59.78 257.75,59.71 258.12,59.67 258.49,59.64 258.86,59.62 259.23,59.61 259.59,59.6 259.96,59.6" stroke-dasharray="none" stroke="rgb(31,120,180)" stroke-width="0.75" opacity="1" stroke-opacity="1" fill="none"/>
          </g>
          <g id="Fig:densplot_01.xyplot.lines.group.3.panel.1.1.1">
            <polyline id="Fig:densplot_01.xyplot.lines.group.3.panel.1.1.1.1" points="64.63,59.6 65.02,59.61 65.4,59.62 65.79,59.63 66.18,59.65 66.56,59.67 66.95,59.71 67.34,59.76 67.72,59.83 68.11,59.93 68.5,60.06 68.88,60.22 69.27,60.43 69.66,60.68 70.04,60.99 70.43,61.35 70.82,61.78 71.2,62.26 71.59,62.81 71.98,63.42 72.36,64.1 72.75,64.84 73.14,65.65 73.52,66.54 73.91,67.49 74.3,68.52 74.68,69.62 75.07,70.79 75.46,72.05 75.84,73.39 76.23,74.81 76.62,76.33 77,77.93 77.39,79.62 77.78,81.41 78.16,83.3 78.55,85.27 78.94,87.33 79.32,89.47 79.71,91.69 80.09,93.98 80.48,96.33 80.87,98.74 81.25,101.21 81.64,103.72 82.03,106.27 82.41,108.85 82.8,111.45 83.19,114.05 83.57,116.66 83.96,119.24 84.35,121.8 84.73,124.32 85.12,126.79 85.51,129.19 85.89,131.51 86.28,133.75 86.67,135.9 87.05,137.93 87.44,139.87 87.83,141.69 88.21,143.39 88.6,144.98 88.99,146.45 89.37,147.79 89.76,149 90.15,150.08 90.53,151.03 90.92,151.85 91.31,152.52 91.69,153.07 92.08,153.5 92.47,153.81 92.85,154.01 93.24,154.11 93.62,154.13 94.01,154.06 94.4,153.91 94.78,153.69 95.17,153.42 95.56,153.09 95.94,152.7 96.33,152.28 96.72,151.81 97.1,151.31 97.49,150.77 97.88,150.2 98.26,149.6 98.65,148.97 99.04,148.3 99.42,147.61 99.81,146.89 100.2,146.14 100.58,145.37 100.97,144.58 101.36,143.78 101.74,142.98 102.13,142.16 102.52,141.35 102.9,140.54 103.29,139.73 103.68,138.92 104.06,138.12 104.45,137.32 104.84,136.53 105.22,135.75 105.61,134.97 106,134.2 106.38,133.43 106.77,132.67 107.16,131.91 107.54,131.16 107.93,130.42 108.31,129.68 108.7,128.94 109.09,128.21 109.47,127.49 109.86,126.77 110.25,126.05 110.63,125.33 111.02,124.6 111.41,123.87 111.79,123.13 112.18,122.39 112.57,121.63 112.95,120.86 113.34,120.09 113.73,119.32 114.11,118.55 114.5,117.79 114.89,117.03 115.27,116.3 115.66,115.58 116.05,114.88 116.43,114.21 116.82,113.57 117.21,112.95 117.59,112.35 117.98,111.77 118.37,111.2 118.75,110.65 119.14,110.11 119.53,109.57 119.91,109.03 120.3,108.5 120.69,107.97 121.07,107.44 121.46,106.92 121.84,106.4 122.23,105.9 122.62,105.41 123,104.94 123.39,104.48 123.78,104.03 124.16,103.6 124.55,103.18 124.94,102.77 125.32,102.37 125.71,101.97 126.1,101.58 126.48,101.19 126.87,100.81 127.26,100.44 127.64,100.07 128.03,99.71 128.42,99.35 128.8,99 129.19,98.65 129.58,98.3 129.96,97.96 130.35,97.61 130.74,97.26 131.12,96.9 131.51,96.55 131.9,96.18 132.28,95.82 132.67,95.45 133.06,95.09 133.44,94.72 133.83,94.36 134.22,94 134.6,93.65 134.99,93.31 135.38,92.98 135.76,92.66 136.15,92.36 136.53,92.07 136.92,91.79 137.31,91.53 137.69,91.26 138.08,91.01 138.47,90.76 138.85,90.5 139.24,90.25 139.63,90.01 140.01,89.76 140.4,89.51 140.79,89.26 141.17,89.02 141.56,88.78 141.95,88.54 142.33,88.31 142.72,88.07 143.11,87.84 143.49,87.62 143.88,87.39 144.27,87.16 144.65,86.94 145.04,86.71 145.43,86.49 145.81,86.27 146.2,86.06 146.59,85.85 146.97,85.64 147.36,85.44 147.75,85.24 148.13,85.05 148.52,84.86 148.91,84.67 149.29,84.49 149.68,84.3 150.07,84.11 150.45,83.92 150.84,83.73 151.22,83.54 151.61,83.35 152,83.16 152.38,82.97 152.77,82.78 153.16,82.6 153.54,82.41 153.93,82.24 154.32,82.07 154.7,81.9 155.09,81.74 155.48,81.58 155.86,81.43 156.25,81.28 156.64,81.14 157.02,80.99 157.41,80.85 157.8,80.72 158.18,80.58 158.57,80.45 158.96,80.32 159.34,80.19 159.73,80.06 160.12,79.94 160.5,79.82 160.89,79.69 161.28,79.58 161.66,79.46 162.05,79.34 162.44,79.22 162.82,79.1 163.21,78.98 163.6,78.85 163.98,78.72 164.37,78.58 164.75,78.43 165.14,78.28 165.53,78.13 165.91,77.97 166.3,77.81 166.69,77.65 167.07,77.5 167.46,77.34 167.85,77.2 168.23,77.06 168.62,76.94 169.01,76.82 169.39,76.71 169.78,76.6 170.17,76.5 170.55,76.4 170.94,76.31 171.33,76.21 171.71,76.11 172.1,76.02 172.49,75.92 172.87,75.82 173.26,75.71 173.65,75.61 174.03,75.51 174.42,75.41 174.81,75.3 175.19,75.2 175.58,75.1 175.97,75 176.35,74.9 176.74,74.81 177.13,74.71 177.51,74.61 177.9,74.51 178.29,74.41 178.67,74.32 179.06,74.22 179.44,74.12 179.83,74.01 180.22,73.91 180.6,73.81 180.99,73.7 181.38,73.6 181.76,73.49 182.15,73.38 182.54,73.27 182.92,73.16 183.31,73.05 183.7,72.94 184.08,72.82 184.47,72.71 184.86,72.6 185.24,72.49 185.63,72.39 186.02,72.28 186.4,72.18 186.79,72.08 187.18,71.99 187.56,71.9 187.95,71.81 188.34,71.73 188.72,71.65 189.11,71.57 189.5,71.5 189.88,71.43 190.27,71.36 190.66,71.29 191.04,71.22 191.43,71.15 191.82,71.08 192.2,71.01 192.59,70.93 192.98,70.86 193.36,70.78 193.75,70.69 194.13,70.61 194.52,70.52 194.91,70.43 195.29,70.33 195.68,70.24 196.07,70.14 196.45,70.04 196.84,69.95 197.23,69.85 197.61,69.75 198,69.65 198.39,69.56 198.77,69.46 199.16,69.37 199.55,69.28 199.93,69.19 200.32,69.11 200.71,69.03 201.09,68.96 201.48,68.89 201.87,68.82 202.25,68.76 202.64,68.7 203.03,68.64 203.41,68.59 203.8,68.54 204.19,68.49 204.57,68.45 204.96,68.4 205.35,68.36 205.73,68.32 206.12,68.27 206.51,68.23 206.89,68.18 207.28,68.13 207.66,68.07 208.05,68.01 208.44,67.94 208.82,67.87 209.21,67.79 209.6,67.72 209.98,67.64 210.37,67.56 210.76,67.48 211.14,67.4 211.53,67.32 211.92,67.25 212.3,67.17 212.69,67.1 213.08,67.03 213.46,66.97 213.85,66.91 214.24,66.84 214.62,66.78 215.01,66.72 215.4,66.66 215.78,66.6 216.17,66.54 216.56,66.47 216.94,66.41 217.33,66.34 217.72,66.27 218.1,66.2 218.49,66.13 218.88,66.05 219.26,65.98 219.65,65.91 220.04,65.84 220.42,65.78 220.81,65.72 221.2,65.66 221.58,65.61 221.97,65.57 222.35,65.53 222.74,65.5 223.13,65.47 223.51,65.44 223.9,65.41 224.29,65.38 224.67,65.35 225.06,65.32 225.45,65.28 225.83,65.23 226.22,65.18 226.61,65.13 226.99,65.08 227.38,65.02 227.77,64.97 228.15,64.91 228.54,64.86 228.93,64.81 229.31,64.77 229.7,64.73 230.09,64.7 230.47,64.66 230.86,64.64 231.25,64.61 231.63,64.59 232.02,64.57 232.41,64.55 232.79,64.52 233.18,64.5 233.57,64.47 233.95,64.44 234.34,64.41 234.73,64.37 235.11,64.33 235.5,64.29 235.88,64.24 236.27,64.19 236.66,64.13 237.04,64.07 237.43,64.01 237.82,63.96 238.2,63.9 238.59,63.85 238.98,63.8 239.36,63.75 239.75,63.71 240.14,63.67 240.52,63.63 240.91,63.6 241.3,63.58 241.68,63.55 242.07,63.53 242.46,63.51 242.84,63.49 243.23,63.47 243.62,63.45 244,63.42 244.39,63.4 244.78,63.37 245.16,63.34 245.55,63.32 245.94,63.29 246.32,63.26 246.71,63.23 247.1,63.2 247.48,63.17 247.87,63.14 248.26,63.1 248.64,63.07 249.03,63.03 249.42,62.99 249.8,62.95 250.19,62.9 250.57,62.84 250.96,62.78 251.35,62.7 251.73,62.61 252.12,62.51 252.51,62.39 252.89,62.26 253.28,62.11 253.67,61.94 254.05,61.75 254.44,61.55 254.83,61.35 255.21,61.14 255.6,60.93 255.99,60.73 256.37,60.54 256.76,60.37 257.15,60.22 257.53,60.08 257.92,59.97 258.31,59.87 258.69,59.8 259.08,59.74 259.47,59.7 259.85,59.67 260.24,59.64 260.63,59.63 261.01,59.62 261.4,59.61 261.79,59.6 262.17,59.6" stroke-dasharray="none" stroke="rgb(31,120,180)" stroke-width="0.75" opacity="1" stroke-opacity="1" fill="none"/>
          </g>
          <g id="Fig:densplot_01.xyplot.lines.group.4.panel.1.1.1">
            <polyline id="Fig:densplot_01.xyplot.lines.group.4.panel.1.1.1.1" points="65,59.62 65.39,59.65 65.77,59.68 66.16,59.73 66.54,59.82 66.93,59.94 67.32,60.12 67.7,60.37 68.09,60.71 68.47,61.17 68.86,61.77 69.24,62.53 69.63,63.48 70.01,64.63 70.4,65.97 70.78,67.52 71.17,69.27 71.55,71.2 71.94,73.31 72.32,75.56 72.71,77.96 73.09,80.46 73.48,83.07 73.86,85.77 74.25,88.54 74.63,91.38 75.02,94.28 75.4,97.22 75.79,100.22 76.17,103.25 76.56,106.31 76.94,109.39 77.33,112.49 77.71,115.59 78.1,118.69 78.48,121.75 78.87,124.78 79.25,127.75 79.64,130.65 80.02,133.46 80.41,136.17 80.79,138.77 81.18,141.24 81.56,143.59 81.95,145.79 82.34,147.85 82.72,149.77 83.11,151.53 83.49,153.14 83.88,154.6 84.26,155.92 84.65,157.1 85.03,158.14 85.42,159.04 85.8,159.81 86.19,160.45 86.57,160.96 86.96,161.36 87.34,161.63 87.73,161.8 88.11,161.86 88.5,161.82 88.88,161.69 89.27,161.48 89.65,161.19 90.04,160.82 90.42,160.4 90.81,159.9 91.19,159.35 91.58,158.75 91.96,158.1 92.35,157.4 92.73,156.66 93.12,155.88 93.5,155.06 93.89,154.21 94.27,153.33 94.66,152.42 95.04,151.48 95.43,150.53 95.81,149.56 96.2,148.59 96.58,147.6 96.97,146.6 97.35,145.6 97.74,144.59 98.13,143.58 98.51,142.55 98.9,141.52 99.28,140.49 99.67,139.45 100.05,138.4 100.44,137.36 100.82,136.32 101.21,135.29 101.59,134.27 101.98,133.27 102.36,132.28 102.75,131.32 103.13,130.38 103.52,129.46 103.9,128.56 104.29,127.69 104.67,126.83 105.06,125.99 105.44,125.17 105.83,124.35 106.21,123.55 106.6,122.75 106.98,121.96 107.37,121.17 107.75,120.39 108.14,119.62 108.52,118.85 108.91,118.1 109.29,117.36 109.68,116.63 110.06,115.92 110.45,115.23 110.83,114.55 111.22,113.89 111.6,113.25 111.99,112.62 112.37,112.01 112.76,111.41 113.15,110.81 113.53,110.23 113.92,109.65 114.3,109.07 114.69,108.5 115.07,107.93 115.46,107.37 115.84,106.81 116.23,106.27 116.61,105.74 117,105.23 117.38,104.73 117.77,104.24 118.15,103.78 118.54,103.33 118.92,102.89 119.31,102.47 119.69,102.06 120.08,101.65 120.46,101.25 120.85,100.86 121.23,100.46 121.62,100.07 122,99.68 122.39,99.29 122.77,98.9 123.16,98.51 123.54,98.12 123.93,97.74 124.31,97.37 124.7,97 125.08,96.64 125.47,96.29 125.85,95.94 126.24,95.59 126.62,95.25 127.01,94.91 127.39,94.58 127.78,94.25 128.17,93.92 128.55,93.6 128.94,93.28 129.32,92.97 129.71,92.66 130.09,92.34 130.48,92.03 130.86,91.72 131.25,91.41 131.63,91.09 132.02,90.78 132.4,90.47 132.79,90.15 133.17,89.85 133.56,89.55 133.94,89.26 134.33,88.99 134.71,88.72 135.1,88.47 135.48,88.24 135.87,88.01 136.25,87.79 136.64,87.58 137.02,87.38 137.41,87.17 137.79,86.96 138.18,86.75 138.56,86.53 138.95,86.31 139.33,86.09 139.72,85.86 140.1,85.63 140.49,85.41 140.87,85.18 141.26,84.97 141.64,84.76 142.03,84.56 142.41,84.37 142.8,84.18 143.18,84.01 143.57,83.83 143.96,83.67 144.34,83.51 144.73,83.35 145.11,83.2 145.5,83.04 145.88,82.88 146.27,82.72 146.65,82.55 147.04,82.38 147.42,82.2 147.81,82.01 148.19,81.82 148.58,81.63 148.96,81.43 149.35,81.22 149.73,81.02 150.12,80.82 150.5,80.62 150.89,80.43 151.27,80.24 151.66,80.06 152.04,79.88 152.43,79.71 152.81,79.55 153.2,79.39 153.58,79.24 153.97,79.1 154.35,78.96 154.74,78.83 155.12,78.7 155.51,78.57 155.89,78.44 156.28,78.31 156.66,78.18 157.05,78.04 157.43,77.91 157.82,77.77 158.2,77.64 158.59,77.5 158.98,77.37 159.36,77.24 159.75,77.11 160.13,76.98 160.52,76.86 160.9,76.74 161.29,76.63 161.67,76.52 162.06,76.41 162.44,76.3 162.83,76.19 163.21,76.08 163.6,75.97 163.98,75.86 164.37,75.75 164.75,75.63 165.14,75.52 165.52,75.4 165.91,75.28 166.29,75.16 166.68,75.05 167.06,74.93 167.45,74.82 167.83,74.71 168.22,74.61 168.6,74.5 168.99,74.39 169.37,74.28 169.76,74.17 170.14,74.06 170.53,73.94 170.91,73.82 171.3,73.69 171.68,73.56 172.07,73.43 172.45,73.31 172.84,73.18 173.22,73.05 173.61,72.93 173.99,72.82 174.38,72.71 174.77,72.6 175.15,72.51 175.54,72.41 175.92,72.32 176.31,72.24 176.69,72.16 177.08,72.08 177.46,72 177.85,71.93 178.23,71.85 178.62,71.78 179,71.7 179.39,71.62 179.77,71.54 180.16,71.46 180.54,71.37 180.93,71.29 181.31,71.2 181.7,71.1 182.08,71.01 182.47,70.91 182.85,70.8 183.24,70.7 183.62,70.59 184.01,70.49 184.39,70.38 184.78,70.27 185.16,70.17 185.55,70.07 185.93,69.98 186.32,69.89 186.7,69.81 187.09,69.74 187.47,69.68 187.86,69.63 188.24,69.58 188.63,69.54 189.01,69.5 189.4,69.47 189.79,69.43 190.17,69.39 190.56,69.35 190.94,69.3 191.33,69.24 191.71,69.18 192.1,69.11 192.48,69.04 192.87,68.96 193.25,68.88 193.64,68.81 194.02,68.73 194.41,68.65 194.79,68.58 195.18,68.51 195.56,68.44 195.95,68.36 196.33,68.29 196.72,68.22 197.1,68.14 197.49,68.07 197.87,67.99 198.26,67.91 198.64,67.83 199.03,67.75 199.41,67.67 199.8,67.59 200.18,67.51 200.57,67.44 200.95,67.36 201.34,67.29 201.72,67.22 202.11,67.15 202.49,67.09 202.88,67.02 203.26,66.96 203.65,66.9 204.03,66.83 204.42,66.77 204.81,66.7 205.19,66.64 205.58,66.57 205.96,66.5 206.35,66.43 206.73,66.36 207.12,66.29 207.5,66.22 207.89,66.15 208.27,66.09 208.66,66.02 209.04,65.96 209.43,65.9 209.81,65.84 210.2,65.79 210.58,65.74 210.97,65.69 211.35,65.64 211.74,65.59 212.12,65.55 212.51,65.5 212.89,65.44 213.28,65.39 213.66,65.34 214.05,65.28 214.43,65.23 214.82,65.18 215.2,65.13 215.59,65.09 215.97,65.05 216.36,65.02 216.74,64.99 217.13,64.96 217.51,64.94 217.9,64.91 218.28,64.89 218.67,64.86 219.05,64.82 219.44,64.79 219.82,64.74 220.21,64.69 220.6,64.64 220.98,64.58 221.37,64.52 221.75,64.47 222.14,64.41 222.52,64.36 222.91,64.31 223.29,64.27 223.68,64.23 224.06,64.2 224.45,64.17 224.83,64.14 225.22,64.12 225.6,64.09 225.99,64.07 226.37,64.05 226.76,64.02 227.14,64 227.53,63.97 227.91,63.94 228.3,63.91 228.68,63.87 229.07,63.83 229.45,63.79 229.84,63.74 230.22,63.68 230.61,63.63 230.99,63.58 231.38,63.52 231.76,63.47 232.15,63.42 232.53,63.38 232.92,63.34 233.3,63.31 233.69,63.28 234.07,63.25 234.46,63.23 234.84,63.2 235.23,63.18 235.62,63.16 236,63.13 236.39,63.1 236.77,63.06 237.16,63.03 237.54,62.99 237.93,62.95 238.31,62.92 238.7,62.88 239.08,62.85 239.47,62.81 239.85,62.78 240.24,62.75 240.62,62.72 241.01,62.69 241.39,62.66 241.78,62.64 242.16,62.62 242.55,62.59 242.93,62.57 243.32,62.55 243.7,62.53 244.09,62.51 244.47,62.49 244.86,62.47 245.24,62.45 245.63,62.42 246.01,62.4 246.4,62.37 246.78,62.34 247.17,62.31 247.55,62.28 247.94,62.25 248.32,62.22 248.71,62.18 249.09,62.15 249.48,62.11 249.86,62.08 250.25,62.04 250.64,62 251.02,61.95 251.41,61.9 251.79,61.85 252.18,61.78 252.56,61.7 252.95,61.61 253.33,61.5 253.72,61.37 254.1,61.24 254.49,61.09 254.87,60.93 255.26,60.77 255.64,60.61 256.03,60.45 256.41,60.3 256.8,60.17 257.18,60.05 257.57,59.94 257.95,59.86 258.34,59.79 258.72,59.73 259.11,59.69 259.49,59.66 259.88,59.64 260.26,59.63 260.65,59.61 261.03,59.61 261.42,59.6 261.8,59.6" stroke-dasharray="none" stroke="rgb(31,120,180)" stroke-width="0.75" opacity="1" stroke-opacity="1" fill="none"/>
          </g>
          <g id="Fig:densplot_01.xyplot.lines.group.5.panel.1.1.1">
            <polyline id="Fig:densplot_01.xyplot.lines.group.5.panel.1.1.1.1" points="77.88,59.6 78.23,59.6 78.59,59.6 78.95,59.6 79.31,59.6 79.66,59.6 80.02,59.6 80.38,59.6 80.74,59.6 81.09,59.6 81.45,59.6 81.81,59.6 82.16,59.61 82.52,59.61 82.88,59.61 83.24,59.61 83.59,59.61 83.95,59.62 84.31,59.62 84.67,59.62 85.02,59.63 85.38,59.63 85.74,59.64 86.1,59.65 86.45,59.67 86.81,59.69 87.17,59.71 87.52,59.74 87.88,59.78 88.24,59.84 88.6,59.9 88.95,59.98 89.31,60.07 89.67,60.19 90.03,60.33 90.38,60.5 90.74,60.7 91.1,60.94 91.46,61.23 91.81,61.57 92.17,61.98 92.53,62.47 92.88,63.03 93.24,63.69 93.6,64.45 93.96,65.34 94.31,66.36 94.67,67.5 95.03,68.8 95.39,70.25 95.74,71.85 96.1,73.62 96.46,75.56 96.82,77.67 97.17,79.95 97.53,82.39 97.89,85.01 98.24,87.78 98.6,90.71 98.96,93.8 99.32,97.03 99.67,100.4 100.03,103.9 100.39,107.51 100.75,111.22 101.1,115.02 101.46,118.88 101.82,122.79 102.18,126.73 102.53,130.67 102.89,134.59 103.25,138.47 103.6,142.28 103.96,145.99 104.32,149.59 104.68,153.06 105.03,156.38 105.39,159.54 105.75,162.53 106.11,165.34 106.46,167.97 106.82,170.41 107.18,172.65 107.54,174.68 107.89,176.51 108.25,178.12 108.61,179.52 108.96,180.68 109.32,181.62 109.68,182.36 110.04,182.9 110.39,183.25 110.75,183.43 111.11,183.45 111.47,183.33 111.82,183.08 112.18,182.72 112.54,182.26 112.9,181.7 113.25,181.05 113.61,180.32 113.97,179.52 114.32,178.64 114.68,177.7 115.04,176.7 115.4,175.63 115.75,174.49 116.11,173.3 116.47,172.04 116.83,170.73 117.18,169.38 117.54,168 117.9,166.6 118.26,165.19 118.61,163.78 118.97,162.38 119.33,160.98 119.68,159.59 120.04,158.21 120.4,156.85 120.76,155.5 121.11,154.18 121.47,152.87 121.83,151.6 122.19,150.35 122.54,149.13 122.9,147.95 123.26,146.79 123.62,145.66 123.97,144.56 124.33,143.48 124.69,142.43 125.04,141.4 125.4,140.38 125.76,139.38 126.12,138.39 126.47,137.41 126.83,136.42 127.19,135.44 127.55,134.45 127.9,133.46 128.26,132.45 128.62,131.43 128.98,130.4 129.33,129.37 129.69,128.33 130.05,127.29 130.4,126.27 130.76,125.26 131.12,124.28 131.48,123.33 131.83,122.4 132.19,121.51 132.55,120.64 132.91,119.79 133.26,118.95 133.62,118.13 133.98,117.3 134.34,116.49 134.69,115.67 135.05,114.86 135.41,114.06 135.76,113.28 136.12,112.52 136.48,111.79 136.84,111.09 137.19,110.43 137.55,109.79 137.91,109.18 138.27,108.6 138.62,108.03 138.98,107.47 139.34,106.91 139.7,106.36 140.05,105.8 140.41,105.24 140.77,104.68 141.12,104.12 141.48,103.57 141.84,103.02 142.2,102.48 142.55,101.96 142.91,101.45 143.27,100.96 143.63,100.49 143.98,100.03 144.34,99.6 144.7,99.19 145.06,98.78 145.41,98.38 145.77,97.98 146.13,97.58 146.48,97.18 146.84,96.76 147.2,96.32 147.56,95.88 147.91,95.43 148.27,94.97 148.63,94.5 148.99,94.04 149.34,93.59 149.7,93.16 150.06,92.74 150.41,92.33 150.77,91.95 151.13,91.59 151.49,91.24 151.84,90.91 152.2,90.59 152.56,90.28 152.92,89.98 153.27,89.69 153.63,89.39 153.99,89.09 154.35,88.79 154.7,88.49 155.06,88.18 155.42,87.88 155.77,87.57 156.13,87.27 156.49,86.98 156.85,86.69 157.2,86.41 157.56,86.14 157.92,85.87 158.28,85.61 158.63,85.36 158.99,85.1 159.35,84.85 159.71,84.6 160.06,84.35 160.42,84.11 160.78,83.87 161.13,83.64 161.49,83.42 161.85,83.21 162.21,83.01 162.56,82.81 162.92,82.61 163.28,82.41 163.64,82.21 163.99,82.02 164.35,81.82 164.71,81.63 165.07,81.44 165.42,81.26 165.78,81.09 166.14,80.93 166.49,80.78 166.85,80.64 167.21,80.51 167.57,80.37 167.92,80.24 168.28,80.1 168.64,79.96 169,79.81 169.35,79.66 169.71,79.49 170.07,79.32 170.43,79.14 170.78,78.96 171.14,78.76 171.5,78.57 171.85,78.37 172.21,78.18 172.57,77.99 172.93,77.8 173.28,77.62 173.64,77.45 174,77.28 174.36,77.13 174.71,76.98 175.07,76.84 175.43,76.71 175.79,76.58 176.14,76.45 176.5,76.32 176.86,76.19 177.21,76.07 177.57,75.95 177.93,75.83 178.29,75.72 178.64,75.6 179,75.49 179.36,75.36 179.72,75.24 180.07,75.1 180.43,74.96 180.79,74.8 181.15,74.64 181.5,74.47 181.86,74.31 182.22,74.14 182.57,73.98 182.93,73.83 183.29,73.69 183.65,73.57 184,73.46 184.36,73.36 184.72,73.28 185.08,73.21 185.43,73.15 185.79,73.09 186.15,73.03 186.51,72.96 186.86,72.89 187.22,72.81 187.58,72.71 187.93,72.61 188.29,72.48 188.65,72.35 189.01,72.21 189.36,72.07 189.72,71.92 190.08,71.78 190.44,71.64 190.79,71.51 191.15,71.39 191.51,71.27 191.87,71.17 192.22,71.08 192.58,70.99 192.94,70.9 193.29,70.82 193.65,70.73 194.01,70.65 194.37,70.57 194.72,70.49 195.08,70.41 195.44,70.33 195.8,70.25 196.15,70.17 196.51,70.1 196.87,70.03 197.23,69.96 197.58,69.89 197.94,69.82 198.3,69.75 198.65,69.68 199.01,69.6 199.37,69.52 199.73,69.44 200.08,69.36 200.44,69.26 200.8,69.17 201.16,69.07 201.51,68.96 201.87,68.85 202.23,68.74 202.59,68.63 202.94,68.53 203.3,68.43 203.66,68.34 204.01,68.25 204.37,68.18 204.73,68.12 205.09,68.07 205.44,68.03 205.8,68 206.16,67.96 206.52,67.93 206.87,67.89 207.23,67.84 207.59,67.78 207.95,67.72 208.3,67.65 208.66,67.57 209.02,67.49 209.37,67.42 209.73,67.34 210.09,67.28 210.45,67.22 210.8,67.16 211.16,67.12 211.52,67.07 211.88,67.03 212.23,66.98 212.59,66.93 212.95,66.88 213.31,66.82 213.66,66.75 214.02,66.68 214.38,66.6 214.73,66.53 215.09,66.46 215.45,66.39 215.81,66.32 216.16,66.26 216.52,66.2 216.88,66.15 217.24,66.09 217.59,66.03 217.95,65.97 218.31,65.91 218.67,65.84 219.02,65.78 219.38,65.71 219.74,65.64 220.09,65.57 220.45,65.49 220.81,65.42 221.17,65.35 221.52,65.29 221.88,65.22 222.24,65.16 222.6,65.1 222.95,65.04 223.31,64.99 223.67,64.94 224.03,64.89 224.38,64.84 224.74,64.8 225.1,64.76 225.45,64.73 225.81,64.7 226.17,64.68 226.53,64.66 226.88,64.65 227.24,64.63 227.6,64.62 227.96,64.61 228.31,64.6 228.67,64.58 229.03,64.56 229.39,64.54 229.74,64.51 230.1,64.48 230.46,64.45 230.81,64.42 231.17,64.38 231.53,64.34 231.89,64.3 232.24,64.26 232.6,64.21 232.96,64.16 233.32,64.12 233.67,64.07 234.03,64.03 234.39,63.98 234.75,63.94 235.1,63.89 235.46,63.85 235.82,63.81 236.17,63.76 236.53,63.71 236.89,63.66 237.25,63.62 237.6,63.57 237.96,63.52 238.32,63.48 238.68,63.44 239.03,63.41 239.39,63.38 239.75,63.35 240.11,63.34 240.46,63.32 240.82,63.31 241.18,63.29 241.53,63.28 241.89,63.26 242.25,63.23 242.61,63.21 242.96,63.18 243.32,63.14 243.68,63.1 244.04,63.06 244.39,63.02 244.75,62.98 245.11,62.95 245.47,62.92 245.82,62.89 246.18,62.87 246.54,62.85 246.89,62.83 247.25,62.81 247.61,62.78 247.97,62.76 248.32,62.73 248.68,62.69 249.04,62.65 249.4,62.61 249.75,62.57 250.11,62.52 250.47,62.47 250.83,62.42 251.18,62.37 251.54,62.32 251.9,62.25 252.25,62.18 252.61,62.1 252.97,62 253.33,61.87 253.68,61.73 254.04,61.57 254.4,61.39 254.76,61.19 255.11,60.98 255.47,60.77 255.83,60.56 256.19,60.37 256.54,60.2 256.9,60.05 257.26,59.93 257.61,59.83 257.97,59.76 258.33,59.7 258.69,59.66 259.04,59.64 259.4,59.62 259.76,59.61 260.12,59.6 260.47,59.6" stroke-dasharray="none" stroke="rgb(31,120,180)" stroke-width="0.75" opacity="1" stroke-opacity="1" fill="none"/>
          </g>
          <g id="Fig:densplot_01.xyplot.lines.group.6.panel.1.1.1">
            <polyline id="Fig:densplot_01.xyplot.lines.group.6.panel.1.1.1.1" points="65.15,59.68 65.53,59.74 65.92,59.84 66.3,59.99 66.69,60.23 67.07,60.57 67.45,61.08 67.84,61.8 68.22,62.78 68.61,64.07 68.99,65.71 69.38,67.75 69.76,70.2 70.15,73.08 70.53,76.36 70.92,80.02 71.3,83.99 71.68,88.22 72.07,92.62 72.45,97.11 72.84,101.61 73.22,106.05 73.61,110.38 73.99,114.57 74.38,118.59 74.76,122.44 75.15,126.11 75.53,129.61 75.91,132.94 76.3,136.11 76.68,139.12 77.07,141.99 77.45,144.71 77.84,147.29 78.22,149.72 78.61,152.01 78.99,154.16 79.38,156.15 79.76,157.97 80.14,159.63 80.53,161.12 80.91,162.43 81.3,163.55 81.68,164.49 82.07,165.24 82.45,165.81 82.84,166.22 83.22,166.46 83.61,166.57 83.99,166.55 84.37,166.42 84.76,166.2 85.14,165.9 85.53,165.54 85.91,165.12 86.3,164.64 86.68,164.12 87.07,163.55 87.45,162.93 87.84,162.26 88.22,161.55 88.6,160.78 88.99,159.96 89.37,159.09 89.76,158.17 90.14,157.2 90.53,156.2 90.91,155.15 91.3,154.07 91.68,152.97 92.07,151.84 92.45,150.72 92.83,149.59 93.22,148.48 93.6,147.37 93.99,146.29 94.37,145.22 94.76,144.18 95.14,143.15 95.53,142.15 95.91,141.16 96.3,140.18 96.68,139.22 97.06,138.27 97.45,137.33 97.83,136.41 98.22,135.49 98.6,134.58 98.99,133.67 99.37,132.77 99.76,131.88 100.14,130.98 100.53,130.09 100.91,129.2 101.29,128.31 101.68,127.42 102.06,126.53 102.45,125.65 102.83,124.76 103.22,123.88 103.6,123 103.99,122.12 104.37,121.25 104.76,120.39 105.14,119.55 105.52,118.72 105.91,117.92 106.29,117.15 106.68,116.41 107.06,115.69 107.45,115 107.83,114.34 108.22,113.69 108.6,113.06 108.99,112.43 109.37,111.81 109.75,111.2 110.14,110.59 110.52,109.98 110.91,109.38 111.29,108.78 111.68,108.2 112.06,107.63 112.45,107.07 112.83,106.53 113.22,106 113.6,105.49 113.98,104.99 114.37,104.49 114.75,104.01 115.14,103.53 115.52,103.07 115.91,102.6 116.29,102.15 116.68,101.7 117.06,101.26 117.45,100.83 117.83,100.4 118.21,99.98 118.6,99.57 118.98,99.17 119.37,98.78 119.75,98.4 120.14,98.04 120.52,97.69 120.91,97.35 121.29,97.02 121.68,96.7 122.06,96.38 122.44,96.07 122.83,95.77 123.21,95.46 123.6,95.15 123.98,94.83 124.37,94.51 124.75,94.19 125.14,93.86 125.52,93.53 125.91,93.19 126.29,92.86 126.67,92.53 127.06,92.2 127.44,91.88 127.83,91.57 128.21,91.26 128.6,90.96 128.98,90.68 129.37,90.4 129.75,90.13 130.14,89.88 130.52,89.63 130.9,89.39 131.29,89.16 131.67,88.94 132.06,88.72 132.44,88.5 132.83,88.27 133.21,88.04 133.6,87.8 133.98,87.54 134.37,87.28 134.75,87.01 135.13,86.73 135.52,86.45 135.9,86.16 136.29,85.88 136.67,85.6 137.06,85.32 137.44,85.06 137.83,84.81 138.21,84.57 138.6,84.34 138.98,84.13 139.36,83.93 139.75,83.74 140.13,83.57 140.52,83.4 140.9,83.23 141.29,83.06 141.67,82.9 142.06,82.73 142.44,82.55 142.83,82.38 143.21,82.19 143.59,82.01 143.98,81.82 144.36,81.63 144.75,81.43 145.13,81.24 145.52,81.05 145.9,80.86 146.29,80.67 146.67,80.48 147.06,80.29 147.44,80.1 147.82,79.92 148.21,79.75 148.59,79.58 148.98,79.42 149.36,79.26 149.75,79.12 150.13,78.99 150.52,78.86 150.9,78.74 151.29,78.62 151.67,78.5 152.05,78.38 152.44,78.25 152.82,78.12 153.21,77.98 153.59,77.84 153.98,77.7 154.36,77.55 154.75,77.4 155.13,77.25 155.52,77.1 155.9,76.95 156.28,76.8 156.67,76.65 157.05,76.5 157.44,76.34 157.82,76.19 158.21,76.04 158.59,75.89 158.98,75.74 159.36,75.59 159.75,75.45 160.13,75.31 160.51,75.17 160.9,75.04 161.28,74.92 161.67,74.8 162.05,74.69 162.44,74.58 162.82,74.48 163.21,74.37 163.59,74.27 163.98,74.16 164.36,74.06 164.74,73.96 165.13,73.85 165.51,73.76 165.9,73.66 166.28,73.56 166.67,73.47 167.05,73.37 167.44,73.28 167.82,73.19 168.21,73.09 168.59,72.99 168.97,72.89 169.36,72.79 169.74,72.68 170.13,72.58 170.51,72.47 170.9,72.35 171.28,72.24 171.67,72.12 172.05,72.01 172.44,71.89 172.82,71.78 173.2,71.66 173.59,71.55 173.97,71.44 174.36,71.34 174.74,71.24 175.13,71.14 175.51,71.05 175.9,70.96 176.28,70.87 176.67,70.8 177.05,70.72 177.43,70.65 177.82,70.58 178.2,70.51 178.59,70.45 178.97,70.38 179.36,70.32 179.74,70.25 180.13,70.18 180.51,70.11 180.9,70.04 181.28,69.97 181.66,69.89 182.05,69.82 182.43,69.75 182.82,69.67 183.2,69.59 183.59,69.51 183.97,69.42 184.36,69.33 184.74,69.24 185.13,69.14 185.51,69.04 185.89,68.94 186.28,68.83 186.66,68.74 187.05,68.64 187.43,68.55 187.82,68.47 188.2,68.39 188.59,68.32 188.97,68.25 189.36,68.19 189.74,68.13 190.12,68.07 190.51,68.02 190.89,67.96 191.28,67.89 191.66,67.83 192.05,67.76 192.43,67.69 192.82,67.61 193.2,67.53 193.59,67.45 193.97,67.36 194.35,67.28 194.74,67.19 195.12,67.11 195.51,67.02 195.89,66.94 196.28,66.86 196.66,66.79 197.05,66.72 197.43,66.65 197.82,66.58 198.2,66.52 198.58,66.45 198.97,66.39 199.35,66.32 199.74,66.26 200.12,66.19 200.51,66.12 200.89,66.06 201.28,65.99 201.66,65.93 202.05,65.87 202.43,65.81 202.81,65.75 203.2,65.7 203.58,65.65 203.97,65.6 204.35,65.56 204.74,65.52 205.12,65.48 205.51,65.45 205.89,65.42 206.28,65.39 206.66,65.36 207.04,65.34 207.43,65.31 207.81,65.29 208.2,65.26 208.58,65.23 208.97,65.19 209.35,65.15 209.74,65.11 210.12,65.06 210.51,65 210.89,64.95 211.27,64.89 211.66,64.83 212.04,64.77 212.43,64.72 212.81,64.66 213.2,64.61 213.58,64.56 213.97,64.51 214.35,64.46 214.74,64.41 215.12,64.36 215.5,64.31 215.89,64.27 216.27,64.22 216.66,64.17 217.04,64.13 217.43,64.08 217.81,64.04 218.2,63.99 218.58,63.96 218.97,63.92 219.35,63.89 219.73,63.86 220.12,63.83 220.5,63.81 220.89,63.79 221.27,63.78 221.66,63.76 222.04,63.74 222.43,63.72 222.81,63.7 223.2,63.68 223.58,63.65 223.96,63.62 224.35,63.59 224.73,63.55 225.12,63.52 225.5,63.48 225.89,63.44 226.27,63.4 226.66,63.35 227.04,63.31 227.43,63.27 227.81,63.23 228.19,63.19 228.58,63.15 228.96,63.1 229.35,63.06 229.73,63.01 230.12,62.97 230.5,62.93 230.89,62.89 231.27,62.85 231.66,62.81 232.04,62.78 232.42,62.75 232.81,62.73 233.19,62.71 233.58,62.68 233.96,62.66 234.35,62.64 234.73,62.61 235.12,62.58 235.5,62.55 235.89,62.52 236.27,62.48 236.65,62.44 237.04,62.4 237.42,62.36 237.81,62.32 238.19,62.29 238.58,62.25 238.96,62.22 239.35,62.19 239.73,62.17 240.12,62.14 240.5,62.13 240.88,62.11 241.27,62.1 241.65,62.09 242.04,62.08 242.42,62.07 242.81,62.06 243.19,62.05 243.58,62.04 243.96,62.02 244.35,62.01 244.73,61.99 245.11,61.98 245.5,61.96 245.88,61.95 246.27,61.93 246.65,61.92 247.04,61.9 247.42,61.89 247.81,61.88 248.19,61.87 248.58,61.85 248.96,61.84 249.34,61.82 249.73,61.79 250.11,61.77 250.5,61.74 250.88,61.7 251.27,61.65 251.65,61.59 252.04,61.53 252.42,61.45 252.81,61.36 253.19,61.26 253.57,61.14 253.96,61.02 254.34,60.89 254.73,60.75 255.11,60.6 255.5,60.46 255.88,60.33 256.27,60.2 256.65,60.08 257.04,59.98 257.42,59.89 257.8,59.82 258.19,59.76 258.57,59.71 258.96,59.68 259.34,59.65 259.73,59.63 260.11,59.62 260.5,59.61 260.88,59.61 261.27,59.6 261.65,59.6" stroke-dasharray="none" stroke="rgb(31,120,180)" stroke-width="0.75" opacity="1" stroke-opacity="1" fill="none"/>
          </g>
          <g id="Fig:densplot_01.xyplot.lines.group.7.panel.1.1.1">
            <polyline id="Fig:densplot_01.xyplot.lines.group.7.panel.1.1.1.1" points="77.91,59.6 78.27,59.6 78.63,59.6 78.99,59.6 79.34,59.6 79.7,59.6 80.06,59.6 80.41,59.6 80.77,59.6 81.13,59.61 81.49,59.61 81.84,59.61 82.2,59.62 82.56,59.63 82.91,59.64 83.27,59.66 83.63,59.68 83.99,59.71 84.34,59.75 84.7,59.8 85.06,59.87 85.42,59.95 85.77,60.06 86.13,60.19 86.49,60.35 86.84,60.56 87.2,60.81 87.56,61.11 87.92,61.48 88.27,61.92 88.63,62.45 88.99,63.07 89.34,63.8 89.7,64.64 90.06,65.61 90.42,66.73 90.77,67.99 91.13,69.42 91.49,71.03 91.84,72.83 92.2,74.83 92.56,77.03 92.92,79.45 93.27,82.09 93.63,84.97 93.99,88.07 94.34,91.39 94.7,94.92 95.06,98.66 95.42,102.59 95.77,106.71 96.13,110.98 96.49,115.4 96.84,119.93 97.2,124.54 97.56,129.22 97.92,133.92 98.27,138.62 98.63,143.27 98.99,147.86 99.35,152.34 99.7,156.7 100.06,160.9 100.42,164.91 100.77,168.7 101.13,172.25 101.49,175.52 101.85,178.5 102.2,181.16 102.56,183.51 102.92,185.54 103.27,187.25 103.63,188.66 103.99,189.79 104.35,190.68 104.7,191.33 105.06,191.78 105.42,192.02 105.77,192.08 106.13,191.95 106.49,191.66 106.85,191.2 107.2,190.6 107.56,189.85 107.92,188.98 108.27,188 108.63,186.9 108.99,185.7 109.35,184.41 109.7,183.04 110.06,181.61 110.42,180.12 110.77,178.59 111.13,177.03 111.49,175.45 111.85,173.86 112.2,172.26 112.56,170.66 112.92,169.05 113.27,167.44 113.63,165.83 113.99,164.23 114.35,162.62 114.7,161.03 115.06,159.45 115.42,157.88 115.78,156.33 116.13,154.79 116.49,153.27 116.85,151.77 117.2,150.31 117.56,148.87 117.92,147.48 118.28,146.12 118.63,144.81 118.99,143.54 119.35,142.31 119.7,141.11 120.06,139.95 120.42,138.8 120.78,137.67 121.13,136.56 121.49,135.46 121.85,134.36 122.2,133.28 122.56,132.2 122.92,131.14 123.28,130.09 123.63,129.06 123.99,128.06 124.35,127.08 124.7,126.13 125.06,125.2 125.42,124.31 125.78,123.44 126.13,122.59 126.49,121.75 126.85,120.93 127.2,120.11 127.56,119.29 127.92,118.47 128.28,117.64 128.63,116.8 128.99,115.97 129.35,115.13 129.7,114.31 130.06,113.49 130.42,112.7 130.78,111.94 131.13,111.2 131.49,110.49 131.85,109.81 132.21,109.16 132.56,108.53 132.92,107.92 133.28,107.33 133.63,106.74 133.99,106.17 134.35,105.59 134.71,105.02 135.06,104.44 135.42,103.87 135.78,103.3 136.13,102.72 136.49,102.16 136.85,101.59 137.21,101.03 137.56,100.48 137.92,99.94 138.28,99.41 138.63,98.9 138.99,98.41 139.35,97.94 139.71,97.49 140.06,97.05 140.42,96.62 140.78,96.19 141.13,95.77 141.49,95.35 141.85,94.94 142.21,94.54 142.56,94.15 142.92,93.79 143.28,93.44 143.63,93.11 143.99,92.81 144.35,92.51 144.71,92.23 145.06,91.94 145.42,91.64 145.78,91.34 146.14,91.01 146.49,90.67 146.85,90.31 147.21,89.95 147.56,89.57 147.92,89.19 148.28,88.82 148.64,88.45 148.99,88.08 149.35,87.73 149.71,87.4 150.06,87.07 150.42,86.77 150.78,86.48 151.14,86.21 151.49,85.96 151.85,85.73 152.21,85.51 152.56,85.3 152.92,85.1 153.28,84.9 153.64,84.69 153.99,84.49 154.35,84.27 154.71,84.04 155.06,83.8 155.42,83.55 155.78,83.3 156.14,83.04 156.49,82.78 156.85,82.52 157.21,82.27 157.56,82.03 157.92,81.79 158.28,81.57 158.64,81.37 158.99,81.18 159.35,81.01 159.71,80.85 160.06,80.7 160.42,80.56 160.78,80.42 161.14,80.29 161.49,80.16 161.85,80.04 162.21,79.9 162.57,79.77 162.92,79.63 163.28,79.48 163.64,79.33 163.99,79.17 164.35,79.01 164.71,78.84 165.07,78.67 165.42,78.51 165.78,78.36 166.14,78.22 166.49,78.08 166.85,77.96 167.21,77.85 167.57,77.74 167.92,77.63 168.28,77.52 168.64,77.4 168.99,77.27 169.35,77.13 169.71,76.97 170.07,76.8 170.42,76.62 170.78,76.44 171.14,76.25 171.49,76.06 171.85,75.88 172.21,75.71 172.57,75.54 172.92,75.39 173.28,75.24 173.64,75.11 173.99,74.98 174.35,74.86 174.71,74.74 175.07,74.63 175.42,74.52 175.78,74.41 176.14,74.31 176.49,74.21 176.85,74.11 177.21,74.02 177.57,73.93 177.92,73.83 178.28,73.74 178.64,73.65 179,73.55 179.35,73.44 179.71,73.33 180.07,73.2 180.42,73.07 180.78,72.93 181.14,72.78 181.5,72.64 181.85,72.5 182.21,72.36 182.57,72.23 182.92,72.11 183.28,71.99 183.64,71.88 184,71.78 184.35,71.68 184.71,71.59 185.07,71.49 185.42,71.4 185.78,71.31 186.14,71.22 186.5,71.13 186.85,71.04 187.21,70.96 187.57,70.87 187.92,70.79 188.28,70.71 188.64,70.63 189,70.55 189.35,70.47 189.71,70.38 190.07,70.3 190.42,70.2 190.78,70.11 191.14,70.01 191.5,69.92 191.85,69.82 192.21,69.72 192.57,69.63 192.93,69.54 193.28,69.45 193.64,69.37 194,69.29 194.35,69.22 194.71,69.15 195.07,69.09 195.43,69.02 195.78,68.96 196.14,68.89 196.5,68.82 196.85,68.74 197.21,68.67 197.57,68.6 197.93,68.53 198.28,68.46 198.64,68.39 199,68.33 199.35,68.27 199.71,68.21 200.07,68.15 200.43,68.09 200.78,68.03 201.14,67.97 201.5,67.91 201.85,67.85 202.21,67.78 202.57,67.72 202.93,67.65 203.28,67.57 203.64,67.5 204,67.42 204.35,67.34 204.71,67.26 205.07,67.18 205.43,67.1 205.78,67.02 206.14,66.95 206.5,66.87 206.85,66.81 207.21,66.75 207.57,66.7 207.93,66.65 208.28,66.61 208.64,66.57 209,66.53 209.36,66.5 209.71,66.46 210.07,66.43 210.43,66.38 210.78,66.34 211.14,66.28 211.5,66.23 211.86,66.16 212.21,66.1 212.57,66.03 212.93,65.95 213.28,65.88 213.64,65.81 214,65.74 214.36,65.68 214.71,65.62 215.07,65.57 215.43,65.53 215.78,65.49 216.14,65.45 216.5,65.42 216.86,65.39 217.21,65.35 217.57,65.32 217.93,65.28 218.28,65.24 218.64,65.2 219,65.15 219.36,65.1 219.71,65.04 220.07,64.98 220.43,64.93 220.78,64.87 221.14,64.82 221.5,64.77 221.86,64.72 222.21,64.67 222.57,64.63 222.93,64.58 223.28,64.54 223.64,64.5 224,64.46 224.36,64.42 224.71,64.38 225.07,64.35 225.43,64.32 225.79,64.28 226.14,64.25 226.5,64.22 226.86,64.19 227.21,64.16 227.57,64.13 227.93,64.1 228.29,64.06 228.64,64.02 229,63.99 229.36,63.95 229.71,63.91 230.07,63.87 230.43,63.83 230.79,63.78 231.14,63.74 231.5,63.69 231.86,63.65 232.21,63.6 232.57,63.57 232.93,63.53 233.29,63.5 233.64,63.48 234,63.46 234.36,63.44 234.71,63.42 235.07,63.41 235.43,63.38 235.79,63.36 236.14,63.34 236.5,63.31 236.86,63.28 237.21,63.24 237.57,63.21 237.93,63.18 238.29,63.14 238.64,63.11 239,63.08 239.36,63.05 239.72,63.02 240.07,62.99 240.43,62.95 240.79,62.92 241.14,62.88 241.5,62.85 241.86,62.81 242.22,62.77 242.57,62.74 242.93,62.7 243.29,62.68 243.64,62.66 244,62.64 244.36,62.62 244.72,62.61 245.07,62.6 245.43,62.58 245.79,62.57 246.14,62.55 246.5,62.54 246.86,62.52 247.22,62.49 247.57,62.47 247.93,62.44 248.29,62.41 248.64,62.38 249,62.35 249.36,62.32 249.72,62.29 250.07,62.27 250.43,62.24 250.79,62.21 251.14,62.18 251.5,62.15 251.86,62.11 252.22,62.06 252.57,62 252.93,61.91 253.29,61.81 253.64,61.68 254,61.53 254.36,61.35 254.72,61.16 255.07,60.96 255.43,60.75 255.79,60.55 256.15,60.36 256.5,60.19 256.86,60.04 257.22,59.92 257.57,59.83 257.93,59.75 258.29,59.7 258.65,59.66 259,59.64 259.36,59.62 259.72,59.61 260.07,59.6 260.43,59.6" stroke-dasharray="none" stroke="rgb(31,120,180)" stroke-width="0.75" opacity="1" stroke-opacity="1" fill="none"/>
          </g>
          <g id="Fig:densplot_01.xyplot.lines.group.8.panel.1.1.1">
            <polyline id="Fig:densplot_01.xyplot.lines.group.8.panel.1.1.1.1" points="72.92,59.6 73.28,59.6 73.65,59.6 74.02,59.6 74.38,59.6 74.75,59.6 75.12,59.6 75.49,59.6 75.85,59.6 76.22,59.6 76.59,59.6 76.95,59.6 77.32,59.6 77.69,59.61 78.05,59.61 78.42,59.62 78.79,59.62 79.16,59.63 79.52,59.65 79.89,59.67 80.26,59.7 80.62,59.74 80.99,59.79 81.36,59.86 81.72,59.94 82.09,60.06 82.46,60.21 82.83,60.4 83.19,60.65 83.56,60.95 83.93,61.34 84.29,61.81 84.66,62.38 85.03,63.08 85.39,63.92 85.76,64.91 86.13,66.07 86.49,67.42 86.86,68.98 87.23,70.77 87.6,72.8 87.96,75.07 88.33,77.59 88.7,80.37 89.06,83.41 89.43,86.72 89.8,90.3 90.16,94.13 90.53,98.22 90.9,102.53 91.27,107.06 91.63,111.77 92,116.63 92.37,121.61 92.73,126.65 93.1,131.72 93.47,136.77 93.83,141.76 94.2,146.66 94.57,151.42 94.94,156.04 95.3,160.47 95.67,164.69 96.04,168.7 96.4,172.47 96.77,175.98 97.14,179.21 97.5,182.16 97.87,184.77 98.24,187.06 98.61,189.02 98.97,190.64 99.34,191.93 99.71,192.91 100.07,193.6 100.44,194.01 100.81,194.18 101.17,194.13 101.54,193.9 101.91,193.49 102.28,192.93 102.64,192.24 103.01,191.39 103.38,190.41 103.74,189.3 104.11,188.06 104.48,186.7 104.84,185.23 105.21,183.69 105.58,182.09 105.95,180.45 106.31,178.81 106.68,177.17 107.05,175.54 107.41,173.92 107.78,172.31 108.15,170.69 108.51,169.07 108.88,167.43 109.25,165.77 109.61,164.1 109.98,162.41 110.35,160.73 110.72,159.06 111.08,157.4 111.45,155.77 111.82,154.16 112.18,152.59 112.55,151.05 112.92,149.54 113.28,148.07 113.65,146.63 114.02,145.22 114.39,143.84 114.75,142.5 115.12,141.18 115.49,139.88 115.85,138.62 116.22,137.38 116.59,136.17 116.95,134.99 117.32,133.83 117.69,132.68 118.06,131.55 118.42,130.42 118.79,129.29 119.16,128.17 119.52,127.04 119.89,125.93 120.26,124.82 120.62,123.74 120.99,122.67 121.36,121.64 121.73,120.65 122.09,119.7 122.46,118.79 122.83,117.92 123.19,117.09 123.56,116.29 123.93,115.53 124.29,114.79 124.66,114.06 125.03,113.36 125.4,112.66 125.76,111.98 126.13,111.32 126.5,110.67 126.86,110.02 127.23,109.38 127.6,108.74 127.96,108.1 128.33,107.45 128.7,106.79 129.07,106.13 129.43,105.47 129.8,104.82 130.17,104.19 130.53,103.59 130.9,103.01 131.27,102.45 131.63,101.92 132,101.4 132.37,100.9 132.74,100.41 133.1,99.93 133.47,99.45 133.84,98.98 134.2,98.52 134.57,98.06 134.94,97.61 135.3,97.16 135.67,96.71 136.04,96.26 136.4,95.82 136.77,95.37 137.14,94.92 137.51,94.48 137.87,94.04 138.24,93.61 138.61,93.19 138.97,92.78 139.34,92.38 139.71,91.99 140.07,91.62 140.44,91.26 140.81,90.91 141.18,90.58 141.54,90.27 141.91,89.98 142.28,89.7 142.64,89.43 143.01,89.16 143.38,88.91 143.74,88.65 144.11,88.39 144.48,88.12 144.85,87.85 145.21,87.57 145.58,87.29 145.95,86.99 146.31,86.7 146.68,86.4 147.05,86.1 147.41,85.8 147.78,85.51 148.15,85.23 148.52,84.96 148.88,84.7 149.25,84.46 149.62,84.22 149.98,83.99 150.35,83.77 150.72,83.55 151.08,83.34 151.45,83.13 151.82,82.92 152.19,82.72 152.55,82.53 152.92,82.34 153.29,82.16 153.65,81.98 154.02,81.81 154.39,81.64 154.75,81.46 155.12,81.28 155.49,81.09 155.86,80.9 156.22,80.7 156.59,80.49 156.96,80.28 157.32,80.08 157.69,79.87 158.06,79.67 158.42,79.47 158.79,79.29 159.16,79.11 159.52,78.94 159.89,78.78 160.26,78.63 160.63,78.5 160.99,78.37 161.36,78.25 161.73,78.14 162.09,78.02 162.46,77.9 162.83,77.77 163.19,77.63 163.56,77.48 163.93,77.33 164.3,77.18 164.66,77.03 165.03,76.87 165.4,76.72 165.76,76.57 166.13,76.42 166.5,76.27 166.86,76.11 167.23,75.94 167.6,75.77 167.97,75.6 168.33,75.42 168.7,75.24 169.07,75.06 169.43,74.88 169.8,74.7 170.17,74.53 170.53,74.36 170.9,74.21 171.27,74.06 171.64,73.93 172,73.82 172.37,73.72 172.74,73.63 173.1,73.54 173.47,73.46 173.84,73.39 174.2,73.3 174.57,73.21 174.94,73.12 175.31,73.01 175.67,72.9 176.04,72.78 176.41,72.66 176.77,72.55 177.14,72.43 177.51,72.33 177.87,72.23 178.24,72.14 178.61,72.06 178.98,71.98 179.34,71.91 179.71,71.84 180.08,71.76 180.44,71.68 180.81,71.59 181.18,71.49 181.54,71.39 181.91,71.28 182.28,71.17 182.65,71.05 183.01,70.93 183.38,70.81 183.75,70.69 184.11,70.58 184.48,70.46 184.85,70.34 185.21,70.23 185.58,70.13 185.95,70.03 186.31,69.93 186.68,69.85 187.05,69.78 187.42,69.72 187.78,69.66 188.15,69.61 188.52,69.57 188.88,69.52 189.25,69.48 189.62,69.43 189.98,69.38 190.35,69.32 190.72,69.26 191.09,69.19 191.45,69.12 191.82,69.05 192.19,68.96 192.55,68.88 192.92,68.79 193.29,68.69 193.65,68.6 194.02,68.5 194.39,68.4 194.76,68.31 195.12,68.22 195.49,68.13 195.86,68.05 196.22,67.96 196.59,67.88 196.96,67.8 197.32,67.72 197.69,67.63 198.06,67.55 198.43,67.47 198.79,67.39 199.16,67.31 199.53,67.23 199.89,67.15 200.26,67.07 200.63,67 200.99,66.92 201.36,66.85 201.73,66.77 202.1,66.7 202.46,66.63 202.83,66.57 203.2,66.51 203.56,66.46 203.93,66.41 204.3,66.36 204.66,66.32 205.03,66.28 205.4,66.24 205.77,66.19 206.13,66.14 206.5,66.08 206.87,66.02 207.23,65.96 207.6,65.9 207.97,65.84 208.33,65.79 208.7,65.74 209.07,65.69 209.43,65.65 209.8,65.61 210.17,65.58 210.54,65.54 210.9,65.51 211.27,65.47 211.64,65.43 212,65.39 212.37,65.35 212.74,65.3 213.1,65.25 213.47,65.19 213.84,65.14 214.21,65.08 214.57,65.03 214.94,64.97 215.31,64.92 215.67,64.87 216.04,64.82 216.41,64.78 216.77,64.73 217.14,64.69 217.51,64.66 217.88,64.62 218.24,64.58 218.61,64.53 218.98,64.49 219.34,64.43 219.71,64.38 220.08,64.32 220.44,64.26 220.81,64.19 221.18,64.13 221.55,64.07 221.91,64.02 222.28,63.97 222.65,63.93 223.01,63.9 223.38,63.88 223.75,63.85 224.11,63.84 224.48,63.82 224.85,63.8 225.22,63.78 225.58,63.76 225.95,63.73 226.32,63.7 226.68,63.66 227.05,63.62 227.42,63.57 227.78,63.52 228.15,63.48 228.52,63.43 228.89,63.39 229.25,63.36 229.62,63.33 229.99,63.3 230.35,63.28 230.72,63.26 231.09,63.24 231.45,63.22 231.82,63.2 232.19,63.18 232.55,63.15 232.92,63.11 233.29,63.07 233.66,63.02 234.02,62.98 234.39,62.93 234.76,62.88 235.12,62.84 235.49,62.8 235.86,62.76 236.22,62.73 236.59,62.7 236.96,62.68 237.33,62.66 237.69,62.64 238.06,62.61 238.43,62.59 238.79,62.57 239.16,62.55 239.53,62.52 239.89,62.5 240.26,62.49 240.63,62.47 241,62.45 241.36,62.44 241.73,62.43 242.1,62.41 242.46,62.39 242.83,62.36 243.2,62.33 243.56,62.3 243.93,62.26 244.3,62.21 244.67,62.17 245.03,62.12 245.4,62.08 245.77,62.03 246.13,62 246.5,61.96 246.87,61.93 247.23,61.91 247.6,61.9 247.97,61.89 248.34,61.88 248.7,61.88 249.07,61.89 249.44,61.89 249.8,61.9 250.17,61.9 250.54,61.91 250.9,61.9 251.27,61.89 251.64,61.87 252.01,61.84 252.37,61.79 252.74,61.71 253.11,61.62 253.47,61.5 253.84,61.36 254.21,61.2 254.57,61.03 254.94,60.84 255.31,60.65 255.68,60.47 256.04,60.29 256.41,60.14 256.78,60 257.14,59.89 257.51,59.8 257.88,59.74 258.24,59.69 258.61,59.65 258.98,59.63 259.34,59.62 259.71,59.61 260.08,59.6 260.45,59.6" stroke-dasharray="none" stroke="rgb(31,120,180)" stroke-width="0.75" opacity="1" stroke-opacity="1" fill="none"/>
          </g>
        </g>
        <g id="Fig:densplot_01.panel.1.1.off.vp.2">
          <g id="Fig:densplot_01.border.panel.1.1.1">
            <rect id="Fig:densplot_01.border.panel.1.1.1.1" x="50.8" y="48.19" width="225.2" height="185.81" transform="" stroke="rgb(0,0,0)" stroke-dasharray="none" stroke-width="0.75" opacity="1" fill="none" stroke-opacity="1" fill-opacity="0"/>
          </g>
        </g>
        <g id="Fig:densplot_01..1"/>
      </g>
    </g>
  </g>
</svg>